<?xml version="1.0" encoding="UTF-8" standalone="no"?>
<svg
   xmlns:dc="http://purl.org/dc/elements/1.1/"
   xmlns:cc="http://creativecommons.org/ns#"
   xmlns:rdf="http://www.w3.org/1999/02/22-rdf-syntax-ns#"
   xmlns:svg="http://www.w3.org/2000/svg"
   xmlns="http://www.w3.org/2000/svg"
   xmlns:sodipodi="http://sodipodi.sourceforge.net/DTD/sodipodi-0.dtd"
   xmlns:inkscape="http://www.inkscape.org/namespaces/inkscape"
   viewBox="0 0 24 24"
   id="svg2"
   version="1.1"
   inkscape:version="0.91 r13725"
   sodipodi:docname="mag_glass.svg">
  <metadata
     id="metadata10">
    <rdf:RDF>
      <cc:Work
         rdf:about="">
        <dc:format>image/svg+xml</dc:format>
        <dc:type
           rdf:resource="http://purl.org/dc/dcmitype/StillImage" />
      </cc:Work>
    </rdf:RDF>
  </metadata>
  <defs
     id="defs8" />
  <sodipodi:namedview
     pagecolor="#ffffff"
     bordercolor="#666666"
     borderopacity="1"
     objecttolerance="10"
     gridtolerance="10"
     guidetolerance="10"
     inkscape:pageopacity="0"
     inkscape:pageshadow="2"
     inkscape:window-width="1920"
     inkscape:window-height="1080"
     id="namedview6"
     showgrid="false"
     inkscape:zoom="9.8333333"
     inkscape:cx="-5.1686297"
     inkscape:cy="12"
     inkscape:window-x="1920"
     inkscape:window-y="0"
     inkscape:window-maximized="0"
     inkscape:current-layer="svg2" />
  <path
     d="m 9.8050847,2.7966102 a 6.5,6.5 0 0 1 6.5000003,6.5 c 0,1.6099998 -0.59,3.0899998 -1.56,4.2299998 l 0.27,0.27 0.79,0 5,5 -1.5,1.5 -5,-5 0,-0.79 -0.27,-0.27 c -1.14,0.97 -2.62,1.56 -4.2300003,1.56 a 6.5,6.5 0 0 1 -6.5,-6.4999998 6.5,6.5 0 0 1 6.5,-6.5 m 0,2 c -2.5,0 -4.5,2 -4.5,4.5 0,2.4999998 2,4.4999998 4.5,4.4999998 2.5000003,0 4.5000003,-2 4.5000003,-4.4999998 0,-2.5 -2,-4.5 -4.5000003,-4.5 z"
     id="path4"
     inkscape:connector-curvature="0"
     style="fill:#dddddd;fill-opacity:1" />
</svg>
