<?xml version="1.0" encoding="UTF-8" standalone="no"?>
<!-- Generator: Adobe Illustrator 16.0.0, SVG Export Plug-In . SVG Version: 6.00 Build 0)  -->

<svg
   xmlns:dc="http://purl.org/dc/elements/1.1/"
   xmlns:cc="http://creativecommons.org/ns#"
   xmlns:rdf="http://www.w3.org/1999/02/22-rdf-syntax-ns#"
   xmlns:svg="http://www.w3.org/2000/svg"
   xmlns="http://www.w3.org/2000/svg"
   xmlns:sodipodi="http://sodipodi.sourceforge.net/DTD/sodipodi-0.dtd"
   xmlns:inkscape="http://www.inkscape.org/namespaces/inkscape"
   version="1.1"
   id="Capa_1"
   x="0px"
   y="0px"
   width="209.322px"
   height="209.322px"
   viewBox="0 0 209.322 209.322"
   style="enable-background:new 0 0 209.322 209.322;"
   xml:space="preserve"
   inkscape:version="0.91 r13725"
   sodipodi:docname="duck2.svg"><metadata
     id="metadata41"><rdf:RDF><cc:Work
         rdf:about=""><dc:format>image/svg+xml</dc:format><dc:type
           rdf:resource="http://purl.org/dc/dcmitype/StillImage" /><dc:title /></cc:Work></rdf:RDF></metadata><defs
     id="defs39" /><sodipodi:namedview
     pagecolor="#ffffff"
     bordercolor="#666666"
     borderopacity="1"
     objecttolerance="10"
     gridtolerance="10"
     guidetolerance="10"
     inkscape:pageopacity="0"
     inkscape:pageshadow="2"
     inkscape:window-width="958"
     inkscape:window-height="263"
     id="namedview37"
     showgrid="false"
     inkscape:zoom="2"
     inkscape:cx="241.27912"
     inkscape:cy="119.73428"
     inkscape:window-x="2880"
     inkscape:window-y="796"
     inkscape:window-maximized="0"
     inkscape:current-layer="layer2" /><g
     inkscape:groupmode="layer"
     id="layer2"
     inkscape:label="bg"
     style="display:inline"><g
       id="g3"
       style="fill:#000000;fill-opacity:1;fill-rule:nonzero;stroke:#000000;stroke-opacity:1"
       transform="matrix(0.5668151,0,0,0.67343946,236.90088,27.69095)"
       inkscape:export-xdpi="154.35548"
       inkscape:export-ydpi="154.35548"><rect
         style="fill:#8c8c8c;fill-opacity:1;fill-rule:nonzero;stroke:#8c8c8c;stroke-width:44.70000076;stroke-linecap:round;stroke-linejoin:round;stroke-miterlimit:4;stroke-dasharray:none;stroke-opacity:1"
         id="rect4169"
         width="272.29599"
         height="224.40028"
         x="-369.86136"
         y="0.88695705" /></g></g><g
     id="g7" /><g
     id="g9" /><g
     id="g11" /><g
     id="g13" /><g
     id="g15" /><g
     id="g17" /><g
     id="g19" /><g
     id="g21" /><g
     id="g23" /><g
     id="g25" /><g
     id="g27" /><g
     id="g29" /><g
     id="g31" /><g
     id="g33" /><g
     id="g35" /><g
     inkscape:groupmode="layer"
     id="layer1"
     inkscape:label="duck"
     style="display:inline"><path
       d="m 168.04165,103.92562 c 9.77089,-6.29193 27.08955,-16.267341 27.77032,-41.662374 0.5296,-20.035814 -9.85191,-48.914738 -48.56793,-50.270352 -31.106,-1.094766 -44.09005,19.2513 -47.87332,37.518492 L 98.4538,49.386891 c -1.90892,0 -3.39694,1.264713 -5.27622,2.854496 -2.05911,1.762693 -4.62707,3.931478 -7.69894,4.256548 -3.53033,0.356689 -8.01413,-1.191596 -11.55829,-2.419751 -4.142921,-1.413909 -6.544887,-2.022552 -8.166288,-0.749935 -1.485049,1.14911 -2.151988,3.223041 -2.003779,6.151641 0.327047,6.250447 4.91163,18.691059 15.824716,25.470126 7.578391,4.70809 16.053951,5.416527 20.434001,5.416527 l 0.006,0 c 2.3417,0 4.88594,-0.236146 7.29976,-0.717329 2.70827,4.167616 5.16556,7.386706 5.9649,9.635516 2.02947,5.78111 -27.5154,24.78737 -27.5154,54.35299 0,29.55871 21.75009,47.89605 56.04949,47.89605 l 54.34707,0 c 30.22762,0 69.96825,-29.5508 74.39178,-91.37548 -28.20013,23.7845 -41.78887,-9.84993 -102.51088,-6.23267 z M 82.4453,80.344674 C 72.400719,74.092261 68.662901,61.548881 68.961294,58.192452 c 0.886287,0.237134 2.167796,0.680772 3.189447,1.029556 4.055973,1.3981 9.303542,3.189447 13.899979,2.674669 4.74169,-0.49304 8.15444,-3.395951 10.64928,-5.507428 0.59975,-0.502921 1.37636,-1.161955 1.84964,-1.473193 0.85961,0.311238 0.95051,0.684724 1.16196,3.102498 0.19366,2.233009 0.46735,5.305865 2.33379,8.898439 1.41983,2.728025 3.53823,5.636864 5.57857,8.439981 1.68068,2.30809 4.2269,5.800871 4.48083,6.327505 -0.43968,1.169859 -4.84839,3.242812 -12.08294,3.242812 -6.47474,0.0079 -12.88427,-1.658947 -17.57655,-4.582617 z m 37.46613,-28.235687 c 0,-4.879024 3.95321,-8.836191 8.82433,-8.836191 4.88199,0 8.83521,3.957167 8.83521,8.836191 0,4.872108 -3.95322,8.835203 -8.83521,8.835203 -4.87803,9.88e-4 -8.82433,-3.963095 -8.82433,-8.835203 z"
       id="path5"
       style="display:inline;fill:#ffffff;fill-opacity:1;fill-rule:nonzero;stroke:none;stroke-opacity:1"
       inkscape:connector-curvature="0"
       sodipodi:nodetypes="cccccccccccssccsssccccccccccccccssscs" /></g></svg>
