<?xml version="1.0" encoding="UTF-8" standalone="no"?>
<svg viewBox="0 0 24 24">
  <path
     d="m 9.8050847,2.7966102 a 6.5,6.5 0 0 1 6.5000003,6.5 c 0,1.6099998 -0.59,3.0899998 -1.56,4.2299998 l 0.27,0.27 0.79,0 5,5 -1.5,1.5 -5,-5 0,-0.79 -0.27,-0.27 c -1.14,0.97 -2.62,1.56 -4.2300003,1.56 a 6.5,6.5 0 0 1 -6.5,-6.4999998 6.5,6.5 0 0 1 6.5,-6.5 m 0,2 c -2.5,0 -4.5,2 -4.5,4.5 0,2.4999998 2,4.4999998 4.5,4.4999998 2.5000003,0 4.5000003,-2 4.5000003,-4.4999998 0,-2.5 -2,-4.5 -4.5000003,-4.5 z"
    />
</svg>
