<?xml version="1.0" encoding="UTF-8" standalone="no"?>
<!DOCTYPE svg PUBLIC "-//W3C//DTD SVG 1.0//EN" "http://www.w3.org/TR/2001/PR-SVG-20010719/DTD/svg10.dtd">
<svg width="52cm" height="15cm" viewBox="98 138 1024 300" xmlns="http://www.w3.org/2000/svg" xmlns:xlink="http://www.w3.org/1999/xlink">
  <g>
    <line style="fill: none; fill-opacity:0; stroke-width: 2; stroke: #000000" x1="100" y1="340" x2="1105.61" y2="340"/>
    <polygon style="fill: #000000" points="1117.76,340 1101.56,348.1 1105.61,340 1101.56,331.9 "/>
    <polygon style="fill: none; fill-opacity:0; stroke-width: 2; stroke: #000000" points="1117.76,340 1101.56,348.1 1105.61,340 1101.56,331.9 "/>
  </g>
  <line style="fill: none; fill-opacity:0; stroke-width: 2; stroke: #000000" x1="280" y1="320" x2="280" y2="360"/>
  <text font-size="12.7998" style="fill: #000000;text-anchor:start;font-family:sans-serif;font-style:normal;font-weight:normal" x="250" y="370">
    <tspan x="250" y="370">f1 = {</tspan>
    <tspan x="250" y="386">   'ip': '1.2.3.4',</tspan>
    <tspan x="250" y="402">   'port': '1234'</tspan>
    <tspan x="250" y="418">   ...</tspan>
    <tspan x="250" y="434">}</tspan>
  </text>
  <line style="fill: none; fill-opacity:0; stroke-width: 2; stroke: #000000" x1="510" y1="320" x2="510" y2="360"/>
  <text font-size="12.7998" style="fill: #000000;text-anchor:start;font-family:sans-serif;font-style:normal;font-weight:normal" x="480" y="370">
    <tspan x="480" y="370">f2 = {</tspan>
    <tspan x="480" y="386">   'ip': '1.2.3.4',</tspan>
    <tspan x="480" y="402">   'port': '4321'</tspan>
    <tspan x="480" y="418">   ...</tspan>
    <tspan x="480" y="434">}</tspan>
  </text>
  <line style="fill: none; fill-opacity:0; stroke-width: 2; stroke: #000000" x1="700" y1="310" x2="700" y2="350"/>
  <text font-size="12.7998" style="fill: #000000;text-anchor:start;font-family:sans-serif;font-style:normal;font-weight:normal" x="670" y="360">
    <tspan x="670" y="360">f3 = {</tspan>
    <tspan x="670" y="376">   'ip': '1.2.3.4',</tspan>
    <tspan x="670" y="392">   'port': '1234'</tspan>
    <tspan x="670" y="408">   ...</tspan>
    <tspan x="670" y="424">}</tspan>
  </text>
  <line style="fill: none; fill-opacity:0; stroke-width: 2; stroke: #000000" x1="910" y1="310" x2="910" y2="350"/>
  <text font-size="12.7998" style="fill: #000000;text-anchor:start;font-family:sans-serif;font-style:normal;font-weight:normal" x="880" y="360">
    <tspan x="880" y="360">f4 = {</tspan>
    <tspan x="880" y="376">   'ip': '1.2.3.4',</tspan>
    <tspan x="880" y="392">   'port': '1234'</tspan>
    <tspan x="880" y="408">   ...</tspan>
    <tspan x="880" y="424">}</tspan>
  </text>
  <line style="fill: none; fill-opacity:0; stroke-width: 2; stroke: #000000" x1="110" y1="180" x2="460" y2="180"/>
  <text font-size="12.7998" style="fill: #000000;text-anchor:start;font-family:sans-serif;font-style:normal;font-weight:normal" x="1080" y="320">
    <tspan x="1080" y="320">tau(f)</tspan>
  </text>
  <line style="fill: none; fill-opacity:0; stroke-width: 2; stroke: #000000" x1="110" y1="200" x2="110" y2="160"/>
  <line style="fill: none; fill-opacity:0; stroke-width: 2; stroke: #000000" x1="460" y1="200" x2="460" y2="160"/>
  <text font-size="12.7998" style="fill: #000000;text-anchor:start;font-family:sans-serif;font-style:normal;font-weight:normal" x="280" y="180">
    <tspan x="280" y="180">2t</tspan>
  </text>
  <line style="fill: none; fill-opacity:0; stroke-width: 2; stroke: #000000" x1="340" y1="220" x2="690" y2="220"/>
  <line style="fill: none; fill-opacity:0; stroke-width: 2; stroke: #000000" x1="340" y1="240" x2="340" y2="200"/>
  <line style="fill: none; fill-opacity:0; stroke-width: 2; stroke: #000000" x1="690" y1="240" x2="690" y2="200"/>
  <text font-size="12.7998" style="fill: #000000;text-anchor:start;font-family:sans-serif;font-style:normal;font-weight:normal" x="510" y="220">
    <tspan x="510" y="220">2t</tspan>
  </text>
  <line style="fill: none; fill-opacity:0; stroke-width: 2; stroke: #000000" x1="530" y1="250" x2="880" y2="250"/>
  <line style="fill: none; fill-opacity:0; stroke-width: 2; stroke: #000000" x1="530" y1="270" x2="530" y2="230"/>
  <line style="fill: none; fill-opacity:0; stroke-width: 2; stroke: #000000" x1="880" y1="270" x2="880" y2="230"/>
  <text font-size="12.7998" style="fill: #000000;text-anchor:start;font-family:sans-serif;font-style:normal;font-weight:normal" x="700" y="250">
    <tspan x="700" y="250">2t</tspan>
  </text>
  <line style="fill: none; fill-opacity:0; stroke-width: 2; stroke: #000000" x1="740" y1="290" x2="1090" y2="290"/>
  <line style="fill: none; fill-opacity:0; stroke-width: 2; stroke: #000000" x1="740" y1="310" x2="740" y2="270"/>
  <line style="fill: none; fill-opacity:0; stroke-width: 2; stroke: #000000" x1="1090" y1="310" x2="1090" y2="270"/>
  <text font-size="12.7998" style="fill: #000000;text-anchor:start;font-family:sans-serif;font-style:normal;font-weight:normal" x="910" y="290">
    <tspan x="910" y="290">2t</tspan>
  </text>
  <text font-size="12.7998" style="fill: #000000;text-anchor:start;font-family:sans-serif;font-style:normal;font-weight:normal" x="850" y="150">
    <tspan x="850" y="150">xi(t, {'ip','port'}, f1) = {f1}</tspan>
  </text>
  <text font-size="12.7998" style="fill: #000000;text-anchor:start;font-family:sans-serif;font-style:normal;font-weight:normal" x="850" y="190">
    <tspan x="850" y="190">xi(t, {'ip','port'}, f3) = {f3, f4}</tspan>
  </text>
  <text font-size="12.7998" style="fill: #000000;text-anchor:start;font-family:sans-serif;font-style:normal;font-weight:normal" x="850" y="210">
    <tspan x="850" y="210">xi(t, {'ip','port'}, f4) = {f3, f4}</tspan>
  </text>
  <text font-size="12.7998" style="fill: #000000;text-anchor:start;font-family:sans-serif;font-style:normal;font-weight:normal" x="850" y="170">
    <tspan x="850" y="170">xi(t, {'ip','port'}, f2) = {f2}</tspan>
  </text>
</svg>
